<svg xmlns="http://www.w3.org/2000/svg" viewBox="0 0 555.082 214.841"><defs><style>.a{fill:#fff;}</style></defs><g transform="translate(-567.009 -429.191)"><g transform="translate(567.009 448.047)"><path class="a" d="M0,131.533Q3.309,83.391,13.829,53.088T38.309,9.773Q52.293-3.214,67.367,1.068q15.086,4.305,27.255,25.31a143.783,143.783,0,0,1,5.385,31,200.262,200.262,0,0,1-.546,34.727A217.591,217.591,0,0,1,93.1,126.551a120.993,120.993,0,0,1-12.6,30.434,88.2,88.2,0,0,1-19.1,22.843,48.889,48.889,0,0,1-25.452,11.2,24.323,24.323,0,0,1-17.15-6.357A47.263,47.263,0,0,1,7.733,169.035a83.008,83.008,0,0,1-5.954-19.38A105.259,105.259,0,0,1,0,131.533Zm14.659-1.66q0,6.938.688,14.4a48.388,48.388,0,0,0,3.179,13.687,24.192,24.192,0,0,0,7.614,10.247q5.124,4.021,13.687,4.009,9.678,0,17.719-8.848T71.376,140.4a172.966,172.966,0,0,0,9.275-31.264A215.308,215.308,0,0,0,84.8,75.528a145.6,145.6,0,0,0-1.66-30.292q-2.348-13.841-8.16-20.9T59.634,18.669Q50.1,20.056,36.815,33.9q-3.878,11.35-7.757,23.389T22.132,81.648c-2.04,8.207-3.772,16.367-5.266,24.48A132.459,132.459,0,0,0,14.659,129.872Z" transform="translate(0 4.961)"/><path class="a" d="M97.779,117.476A26.948,26.948,0,0,1,93.6,124.4a78.162,78.162,0,0,1-7.78,8.753,70.973,70.973,0,0,1-9.3,7.686c-3.2,2.206-6.025,3.3-8.445,3.3q-6.832,0-11.22-6.4A48.665,48.665,0,0,1,50.124,121.3a140.976,140.976,0,0,1-3.2-22.321C46.352,90.79,46,82.8,45.854,74.945Q45.64,63.2,45.64,53.6A121.575,121.575,0,0,0,45,39.079a3.91,3.91,0,0,1,2.23-2.562,11.3,11.3,0,0,1,3.321-.427,10.7,10.7,0,0,1,3.107.427,4.636,4.636,0,0,1,2.467,2.562c0,1.566.024,4.2.095,7.9s.237,7.875.546,12.477q.427,6.938.854,14.517c.285,5.053.546,9.868.735,14.422.213,4.554.427,8.658.64,12.264.213,3.629.38,6.31.546,8.018.142,1,.308,2.633.546,4.91a69.922,69.922,0,0,0,1.067,7.164,38.947,38.947,0,0,0,1.921,6.713c.783,1.993,1.826,3.06,3.107,3.2a10.3,10.3,0,0,0,6.523-2.775,43.182,43.182,0,0,0,6.523-7.045,75.775,75.775,0,0,0,5.978-9.393c1.85-3.416,3.511-6.713,5.005-9.939a68.589,68.589,0,0,0,3.416-8.634,41.973,41.973,0,0,0,1.4-5.551c.285-2.42.569-5.859.854-10.366.285-4.483.5-9.3.64-14.4q.213-7.686.308-14.517c.071-4.554.119-8.041.119-10.461l11.742.64q.213,17.293-.213,31.288t-.213,26.259a184.705,184.705,0,0,0,1.921,23.816,123.551,123.551,0,0,0,6.191,23.911,15.6,15.6,0,0,1-2.562,1.8,6.6,6.6,0,0,1-2.775,1.186c-3.558,0-5.954-1.186-7.164-3.511a23.811,23.811,0,0,1-2.348-8.326q-.534-4.8-.854-9.607A11.947,11.947,0,0,0,97.779,117.476Z" transform="translate(61.744 43.707)"/><path class="a" d="M93.465,85.983c-1.423.712-2.752,1.471-3.961,2.23-1.21.783-2.4,1.494-3.511,2.135a12.9,12.9,0,0,1-3.416,1.376,7.812,7.812,0,0,1-3.629,0,2.468,2.468,0,0,1-2.135-1.589A16.745,16.745,0,0,1,75.437,86.5a27,27,0,0,1-.735-4.056,10.922,10.922,0,0,1,0-3.084L95.2,67.623,96.477,12.97c.285-1.85,1.423-2.586,3.416-2.23s4.056.83,6.191,1.376a4.882,4.882,0,0,1,1.376.308c.64.213,1.091.4,1.4.522-.285,3.843-.617,8.018-.973,12.5s-.688,8.966-.949,13.45c-.285,4.483-.474,8.872-.546,13.141a78.932,78.932,0,0,0,.546,11.528L138.962,54.6c.569-.142,1.02.261,1.376,1.186s.712,2.016,1.067,3.3a39.879,39.879,0,0,1,.949,5.764L106.061,80.219c0,1.281.095,4.341.332,9.18q.32,7.259.735,17.2t.854,21.349q.427,11.422.854,21.254c.285,6.547.5,12.264.64,17.2.142,4.91.213,8.018.213,9.3-.285,4.27-1.542,6.4-3.748,6.4s-4.6-1.067-7.164-3.2Z" transform="translate(102.351 8.806)"/><path class="a" d="M109.847,177.51a221.241,221.241,0,0,0,2.016-24.551q.534-14.731.427-31.383T111.555,87.2q-.64-17.719-1.708-33.612T107.4,25.08q-1.388-12.6-2.894-19.854c1.281-.854,2.372-1.518,3.321-2.04a6.869,6.869,0,0,1,3.321-.735,6.011,6.011,0,0,1,2.562.522,3.889,3.889,0,0,1,1.708,2.253q4.27,41.844,5.883,84.328t2.443,84.541v5.242a12.794,12.794,0,0,1-.213,3.534,10.747,10.747,0,0,1-5.337,1.376,8.819,8.819,0,0,1-4.27-1.281,10.041,10.041,0,0,1-2.989-2.68A4.761,4.761,0,0,1,109.847,177.51Z" transform="translate(143.397 -2.45)"/><path class="a" d="M128.073,101.678l-3.2.64a15.574,15.574,0,0,1-4.483.213,9.7,9.7,0,0,1-4.151-1.281,3.874,3.874,0,0,1-1.826-3.629,2.945,2.945,0,0,1,.64-2.135q.64-.64,2.135-1.921a33.414,33.414,0,0,0,8.018-9.939A127.171,127.171,0,0,0,131.3,70.6c1.85-4.626,3.8-9.251,5.883-13.877a69.012,69.012,0,0,1,7.14-12.5,31.882,31.882,0,0,1,10.034-8.966q5.978-3.416,14.731-3.2a23.052,23.052,0,0,1,8.113,1.708,34,34,0,0,1,8.326,4.6,26.183,26.183,0,0,1,6.4,6.926,16.453,16.453,0,0,1,2.562,8.966c.712,1.139.024,2.775-2.016,4.91a57.172,57.172,0,0,1-8.445,6.926q-5.337,3.736-12.074,7.686c-4.483,2.633-8.8,5.1-12.9,7.353q-6.191,3.416-10.888,5.978a41.9,41.9,0,0,0-6.191,3.843,22.052,22.052,0,0,0-1.708,4.91c-.427,1.85-.735,3.606-.949,5.242s-.356,3.131-.427,4.483-.095,2.4-.095,3.084c0,2.7-.095,5.693-.308,8.966a39.828,39.828,0,0,0,.427,9.3,13.29,13.29,0,0,0,3.534,7.259c1.85,1.921,4.981,2.87,9.393,2.87a26.351,26.351,0,0,0,13.236-3.534,58.986,58.986,0,0,0,11.528-8.634,86.694,86.694,0,0,0,9.726-11.1q4.376-5.978,7.9-11.2c2.348-3.487,4.436-6.357,6.31-8.658q2.775-3.416,4.7-3.416a16.834,16.834,0,0,1,4.6.735,3.321,3.321,0,0,1,2.467,3.534c0,2.562-1.044,5.622-3.107,9.18a81.424,81.424,0,0,1-8.113,11.315,119.4,119.4,0,0,1-11.528,11.86,132.072,132.072,0,0,1-13.141,10.461,82.04,82.04,0,0,1-13.023,7.472,28.151,28.151,0,0,1-11.315,2.87q-9.607,0-14.517-4.7a25.527,25.527,0,0,1-6.926-11.742,57.031,57.031,0,0,1-2.135-15.063C128.334,111.166,128.216,106.232,128.073,101.678Zm39.282-57.642c-2.42,0-4.981,1.186-7.686,3.534a47.019,47.019,0,0,0-7.591,8.54,56.734,56.734,0,0,0-5.764,10.247,23.2,23.2,0,0,0-2.253,8.658c2.135,0,5.242-.807,9.3-2.467a82.372,82.372,0,0,0,12.074-6.1,68.62,68.62,0,0,0,10.461-7.686q4.483-4.056,4.483-7.686a4.045,4.045,0,0,0-1.494-3.2,13.605,13.605,0,0,0-3.511-2.135,21.751,21.751,0,0,0-4.175-1.281A19.791,19.791,0,0,0,167.355,44.036Z" transform="translate(156.98 38.156)"/><path class="a" d="M173.475,85.983c-1.423.712-2.752,1.471-3.961,2.23-1.21.783-2.4,1.494-3.511,2.135a12.9,12.9,0,0,1-3.416,1.376,7.813,7.813,0,0,1-3.629,0,2.468,2.468,0,0,1-2.135-1.589,16.745,16.745,0,0,1-1.376-3.629,27,27,0,0,1-.735-4.056,10.922,10.922,0,0,1,0-3.084l20.495-11.742,1.281-54.653c.285-1.85,1.423-2.586,3.416-2.23s4.056.83,6.191,1.376a4.882,4.882,0,0,1,1.376.308c.64.213,1.091.4,1.4.522-.285,3.843-.617,8.018-.973,12.5s-.688,8.966-.949,13.45c-.285,4.483-.474,8.872-.546,13.141a78.934,78.934,0,0,0,.546,11.528L218.972,54.6c.569-.142,1.02.261,1.376,1.186s.712,2.016,1.067,3.3a39.877,39.877,0,0,1,.949,5.764L186.071,80.219c0,1.281.095,4.341.332,9.18q.32,7.259.735,17.2t.854,21.349q.427,11.422.854,21.254c.285,6.547.5,12.264.64,17.2.142,4.91.214,8.018.214,9.3-.285,4.27-1.542,6.4-3.748,6.4s-4.6-1.067-7.164-3.2Z" transform="translate(212.131 8.806)"/><path class="a" d="M201.883,141.385c0,.142,1.518-.712,4.6-2.562,3.06-1.85,6.689-4.293,10.888-7.377q6.3-4.59,12.9-10.034a91.363,91.363,0,0,0,10.888-10.342c2.846-3.273,4.365-6.1,4.6-8.445.214-2.348-1.755-3.867-5.883-4.578a34.993,34.993,0,0,0-12.928.213,70,70,0,0,0-9.488,2.989c-2.846,1.139-5.527,2.206-8.018,3.2a17.445,17.445,0,0,1-8.231,1.067q-9.393,0-12.928-5.859c-2.348-3.914-3.511-9.2-3.511-15.917a42.708,42.708,0,0,1,4.483-19.119,54.69,54.69,0,0,1,11.528-15.7,56.053,56.053,0,0,1,16.225-10.579A47.121,47.121,0,0,1,235.8,34.38a29.784,29.784,0,0,1,6.618.64q2.775.64,2.775,4.91a8.076,8.076,0,0,1-2.562,5.646,7.835,7.835,0,0,1-5.764,2.68,4.3,4.3,0,0,1-1.067-.308,6.964,6.964,0,0,1-1.708-.973A6.965,6.965,0,0,0,232.388,46a4.3,4.3,0,0,0-1.067-.308,16.231,16.231,0,0,0-13.236,1.921,41.276,41.276,0,0,0-11.433,10.366,57.655,57.655,0,0,0-8.018,14.09,37.57,37.57,0,0,0-2.989,13.545,6.5,6.5,0,0,0,.949,3.748,5.73,5.73,0,0,0,2.562,2.04,10.729,10.729,0,0,0,3.629.735c1.352.071,2.728.095,4.151.095a30.877,30.877,0,0,0,8.658-1.281,86.49,86.49,0,0,0,8.54-2.989,86.486,86.486,0,0,1,8.54-2.989,32.1,32.1,0,0,1,9.085-1.281,11.419,11.419,0,0,1,4.7,1.186,15.263,15.263,0,0,1,4.7,3.416,22.186,22.186,0,0,1,3.629,5.124,15.7,15.7,0,0,1,1.708,6.31c.854,1.993.593,4.626-.735,7.9a52.151,52.151,0,0,1-6.073,10.461,89.664,89.664,0,0,1-9.82,11.2,149.126,149.126,0,0,1-11.528,10.247,70.349,70.349,0,0,1-11.315,7.472c-3.7,1.921-6.832,2.8-9.393,2.68-2.847,0-4.531-.854-5.029-2.562A22.225,22.225,0,0,1,201.883,141.385Z" transform="translate(253.534 41.361)"/></g><g transform="translate(1066.534 429.191)"><path class="a" d="M55.557,27.515a27.628,27.628,0,0,1-8.116,19.7,28.412,28.412,0,0,1-8.875,5.905A27.834,27.834,0,0,1,27.614,55.26,29.128,29.128,0,0,1,16.5,53.182a27.2,27.2,0,0,1-8.743-5.74,25.771,25.771,0,0,1-5.707-8.71A29.462,29.462,0,0,1,0,27.647,27.19,27.19,0,0,1,2.177,16.76,27.725,27.725,0,0,1,8.116,8.017,27.887,27.887,0,0,1,27.911,0,28.515,28.515,0,0,1,39.029,2.078a25.591,25.591,0,0,1,8.743,5.707,25.851,25.851,0,0,1,5.74,8.71A29.241,29.241,0,0,1,55.557,27.515Zm-6.4.4a25.359,25.359,0,0,0-1.584-9.172,21.193,21.193,0,0,0-4.421-7.06,19.345,19.345,0,0,0-6.763-4.52,23.056,23.056,0,0,0-8.479-1.551,21.682,21.682,0,0,0-8.842,1.716A20.378,20.378,0,0,0,7.918,18.937,23.088,23.088,0,0,0,6.367,27.35a25.981,25.981,0,0,0,1.584,9.106,20.939,20.939,0,0,0,4.454,7.06,20.045,20.045,0,0,0,6.763,4.553,22.257,22.257,0,0,0,8.446,1.617,22.234,22.234,0,0,0,8.908-1.749,20.679,20.679,0,0,0,6.763-4.685,20.445,20.445,0,0,0,4.355-6.9A23.118,23.118,0,0,0,49.157,27.911ZM40.81,40.942a.968.968,0,0,1-.132.528c-.066.165-.231.264-.528.363-.3.033-.693.132-1.221.165a18.971,18.971,0,0,1-2.144.066c-.792,0-1.452-.033-1.946-.066a3.947,3.947,0,0,1-1.221-.264,1.563,1.563,0,0,1-.693-.495,1.865,1.865,0,0,1-.4-.891l-1.485-4.916A8.478,8.478,0,0,0,29,31.77a5.207,5.207,0,0,0-3.5-.99H23.589v9.963a.987.987,0,0,1-.594,1.056,8.028,8.028,0,0,1-2.8.3,9.016,9.016,0,0,1-2.9-.3,1.07,1.07,0,0,1-.726-1.056V15.209a3.563,3.563,0,0,1,.792-2.441,2.912,2.912,0,0,1,2.309-.891h8.182a22.84,22.84,0,0,1,5.015.495,10.762,10.762,0,0,1,3.7,1.551,7.061,7.061,0,0,1,2.309,2.639,8.566,8.566,0,0,1,.792,3.794,7.322,7.322,0,0,1-1.848,5.312,10.245,10.245,0,0,1-4.949,2.672,9.279,9.279,0,0,1,3.2,1.913,10.869,10.869,0,0,1,2.573,4.025l1.683,4.553A14.153,14.153,0,0,1,40.81,40.942Zm-8.842-19.7a5.58,5.58,0,0,0-.231-1.485,2.7,2.7,0,0,0-.792-1.254,3.9,3.9,0,0,0-1.617-.792,7.572,7.572,0,0,0-2.474-.3H23.589V25.37h3.134c1.979,0,3.365-.363,4.124-1.155A3.9,3.9,0,0,0,31.968,21.246Z" transform="translate(0 0)"/></g><g transform="translate(1084.489 621.557)"><path class="a" d="M.19,6.545A27.577,27.577,0,0,1,6.232,1.371,13.865,13.865,0,0,1,12.777,0q6.8,0,6.8,6.545a8.265,8.265,0,0,1-.9,3.412,18.638,18.638,0,0,1-2.266,3.636,9.313,9.313,0,0,1-3.133,2.657,3.574,3.574,0,0,1-3.273.112,3.887,3.887,0,0,1-3.664.615,8.55,8.55,0,0,1-3.384-2.126A11,11,0,0,1,.554,11.216,7.956,7.956,0,0,1,.19,6.545Z" transform="translate(-0.003 0)"/></g></g></svg>